<svg version="1.1" id="Layer_1" xmlns="http://www.w3.org/2000/svg" xmlns:xlink="http://www.w3.org/1999/xlink" x="0px" y="0px"
	 width="100%" viewBox="0 0 1430 860" enable-background="new 0 0 1430 860" xml:space="preserve">
<path fill="#000000" opacity="1.000000" stroke="none" 
	d="
M1068.000000,861.000000 
	C712.000000,861.000000 356.500000,861.000000 1.000000,861.000000 
	C1.000000,574.333313 1.000000,287.666656 1.000000,1.000000 
	C477.666656,1.000000 954.333313,1.000000 1431.000000,1.000000 
	C1431.000000,287.666656 1431.000000,574.333313 1431.000000,861.000000 
	C1310.166626,861.000000 1189.333374,861.000000 1068.000000,861.000000 
M632.500000,587.008179 
	C732.627686,587.008179 832.755310,587.008179 933.108215,587.008179 
	C936.865601,629.073669 952.831238,664.303345 982.387756,692.872314 
	C1012.090088,721.582275 1047.863159,736.809082 1089.139404,738.585693 
	C1156.311646,741.476868 1220.150269,702.363770 1246.524902,636.954224 
	C1261.611084,599.540222 1262.483398,561.382324 1249.277222,523.193726 
	C1236.102661,485.096191 1211.410767,456.251556 1176.885742,435.483154 
	C1245.082031,395.512268 1272.460449,319.685394 1253.329102,250.482819 
	C1234.198608,181.284195 1171.953369,133.179214 1099.719971,131.686859 
	C1064.175293,130.952515 1031.567383,140.748489 1002.663818,161.509506 
	C961.810181,190.854126 939.412109,231.089081 934.212097,281.350128 
	C791.488281,280.793091 649.107788,280.237366 506.773895,279.681824 
	C500.693542,199.352234 436.512115,135.982010 357.668488,129.496552 
	C292.969910,124.174606 226.341904,158.102432 196.039108,224.369690 
	C180.640549,258.043823 177.322067,293.246216 186.061630,329.252991 
	C196.978867,374.231567 223.264282,408.091888 262.670502,432.185974 
	C185.681641,476.714722 165.494202,565.670837 191.252502,632.055725 
	C217.129593,698.746704 283.728455,741.034668 355.177612,735.699524 
	C390.830688,733.037354 422.453979,720.116211 449.444611,696.684753 
	C482.761810,667.761047 501.197449,630.966431 505.459198,587.008057 
	C547.612427,587.008057 589.556213,587.008057 632.500000,587.008179 
z"/>
<path fill="#F9F9F9" opacity="1.000000" stroke="none" 
	d="
M632.000000,587.008118 
	C589.556213,587.008057 547.612427,587.008057 505.459198,587.008057 
	C501.197449,630.966431 482.761810,667.761047 449.444611,696.684753 
	C422.453979,720.116211 390.830688,733.037354 355.177612,735.699524 
	C283.728455,741.034668 217.129593,698.746704 191.252502,632.055725 
	C165.494202,565.670837 185.681641,476.714722 262.670502,432.185974 
	C223.264282,408.091888 196.978867,374.231567 186.061630,329.252991 
	C177.322067,293.246216 180.640549,258.043823 196.039108,224.369690 
	C226.341904,158.102432 292.969910,124.174606 357.668488,129.496552 
	C436.512115,135.982010 500.693542,199.352234 506.773895,279.681824 
	C649.107788,280.237366 791.488281,280.793091 934.212097,281.350128 
	C939.412109,231.089081 961.810181,190.854126 1002.663818,161.509506 
	C1031.567383,140.748489 1064.175293,130.952515 1099.719971,131.686859 
	C1171.953369,133.179214 1234.198608,181.284195 1253.329102,250.482819 
	C1272.460449,319.685394 1245.082031,395.512268 1176.885742,435.483154 
	C1211.410767,456.251556 1236.102661,485.096191 1249.277222,523.193726 
	C1262.483398,561.382324 1261.611084,599.540222 1246.524902,636.954224 
	C1220.150269,702.363770 1156.311646,741.476868 1089.139404,738.585693 
	C1047.863159,736.809082 1012.090088,721.582275 982.387756,692.872314 
	C952.831238,664.303345 936.865601,629.073669 933.108215,587.008179 
	C832.755310,587.008179 732.627686,587.008179 632.000000,587.008118 
M406.772644,708.408325 
	C458.794434,681.897583 487.485565,639.699036 492.108185,581.366211 
	C492.632019,574.755554 494.444336,572.965820 501.704163,572.988831 
	C579.364807,573.234558 657.025391,573.503845 734.685974,573.747620 
	C801.515015,573.957336 868.344116,574.140015 935.173218,574.340698 
	C944.968811,574.370117 946.511292,575.794800 946.904358,585.489868 
	C947.483032,599.760193 950.388367,613.600769 955.333801,626.918579 
	C985.801697,708.966125 1076.755371,747.308899 1156.928345,712.036316 
	C1221.031860,683.833618 1257.391235,611.049500 1240.969971,543.264099 
	C1229.934326,497.710114 1203.255981,464.330719 1161.572876,442.929901 
	C1158.287842,441.243256 1154.817871,439.766693 1154.984009,435.148621 
	C1155.139648,430.820892 1158.473145,429.447327 1161.630371,427.913300 
	C1222.907349,398.141846 1255.995972,331.606140 1242.789917,264.704590 
	C1227.493042,187.211197 1152.582153,134.761536 1074.563599,146.921204 
	C1031.227173,153.675446 997.289734,175.433762 972.607117,211.486847 
	C957.313049,233.826263 949.273254,258.784332 947.742249,285.824707 
	C947.343811,292.861481 945.181885,294.936737 938.220276,294.986053 
	C936.887024,294.995483 935.553589,294.989777 934.220337,294.981934 
	C886.730774,294.702240 839.241577,294.335419 791.751648,294.158997 
	C695.424683,293.801208 599.097290,293.550232 502.770111,293.241577 
	C495.308746,293.217682 493.273529,291.240662 493.013855,283.936249 
	C492.397583,266.600342 488.610779,249.929520 481.787354,234.042679 
	C448.652496,156.895294 362.457977,122.283218 284.870697,154.844162 
	C220.224854,181.973999 182.413986,255.614487 198.549408,323.385345 
	C209.627029,369.912903 236.730453,403.867249 279.368408,425.578308 
	C281.761169,426.796722 284.530518,430.149048 284.490356,432.462433 
	C284.450317,434.768066 281.554169,437.968323 279.120392,439.151123 
	C203.586136,475.859985 172.303329,565.041260 209.932343,639.971191 
	C233.364548,686.631348 272.062134,713.665649 323.806427,721.203979 
	C352.358948,725.363708 379.860931,720.717651 406.772644,708.408325 
z"/>
<path fill="#010101" opacity="1.000000" stroke="none" 
	d="
M406.451904,708.605835 
	C379.860931,720.717651 352.358948,725.363708 323.806427,721.203979 
	C272.062134,713.665649 233.364548,686.631348 209.932343,639.971191 
	C172.303329,565.041260 203.586136,475.859985 279.120392,439.151123 
	C281.554169,437.968323 284.450317,434.768066 284.490356,432.462433 
	C284.530518,430.149048 281.761169,426.796722 279.368408,425.578308 
	C236.730453,403.867249 209.627029,369.912903 198.549408,323.385345 
	C182.413986,255.614487 220.224854,181.973999 284.870697,154.844162 
	C362.457977,122.283218 448.652496,156.895294 481.787354,234.042679 
	C488.610779,249.929520 492.397583,266.600342 493.013855,283.936249 
	C493.273529,291.240662 495.308746,293.217682 502.770111,293.241577 
	C599.097290,293.550232 695.424683,293.801208 791.751648,294.158997 
	C839.241577,294.335419 886.730774,294.702240 934.220337,294.981934 
	C935.553589,294.989777 936.887024,294.995483 938.220276,294.986053 
	C945.181885,294.936737 947.343811,292.861481 947.742249,285.824707 
	C949.273254,258.784332 957.313049,233.826263 972.607117,211.486847 
	C997.289734,175.433762 1031.227173,153.675446 1074.563599,146.921204 
	C1152.582153,134.761536 1227.493042,187.211197 1242.789917,264.704590 
	C1255.995972,331.606140 1222.907349,398.141846 1161.630371,427.913300 
	C1158.473145,429.447327 1155.139648,430.820892 1154.984009,435.148621 
	C1154.817871,439.766693 1158.287842,441.243256 1161.572876,442.929901 
	C1203.255981,464.330719 1229.934326,497.710114 1240.969971,543.264099 
	C1257.391235,611.049500 1221.031860,683.833618 1156.928345,712.036316 
	C1076.755371,747.308899 985.801697,708.966125 955.333801,626.918579 
	C950.388367,613.600769 947.483032,599.760193 946.904358,585.489868 
	C946.511292,575.794800 944.968811,574.370117 935.173218,574.340698 
	C868.344116,574.140015 801.515015,573.957336 734.685974,573.747620 
	C657.025391,573.503845 579.364807,573.234558 501.704163,572.988831 
	C494.444336,572.965820 492.632019,574.755554 492.108185,581.366211 
	C487.485565,639.699036 458.794434,681.897583 406.451904,708.605835 
M714.086609,386.525116 
	C708.862610,401.461761 703.638611,416.398438 698.094482,432.250305 
	C690.104919,409.573212 682.420593,387.762482 674.815063,366.175354 
	C667.382996,366.175354 660.341553,366.175354 653.343567,366.175354 
	C653.343567,401.647705 653.343567,436.737244 653.343567,471.996582 
	C659.321960,471.996582 665.081970,471.996582 671.472473,471.996582 
	C671.472473,451.854095 671.472473,431.917053 671.472473,411.980042 
	C673.048157,413.123444 673.578125,414.430603 674.061035,415.754913 
	C678.609619,428.230316 683.145630,440.710297 687.694702,453.185547 
	C691.010803,462.279510 691.019226,462.142029 700.621826,462.286652 
	C703.775146,462.334137 705.152893,461.451080 706.232544,458.328094 
	C711.274536,443.744415 716.675537,429.284790 721.967468,414.787842 
	C722.428955,413.523651 723.030334,412.310455 723.566711,411.073578 
	C723.920654,411.156860 724.274536,411.240143 724.628479,411.323425 
	C724.628479,431.535645 724.628479,451.747864 724.628479,471.999359 
	C730.951660,471.999359 736.738953,471.999359 742.612244,471.999359 
	C742.612244,436.570831 742.612244,401.353180 742.612244,365.793976 
	C736.210266,365.793976 730.059509,365.659119 723.924927,365.913239 
	C722.765198,365.961273 721.097351,367.327423 720.640869,368.474213 
	C718.372070,374.174316 716.429932,380.004486 714.086609,386.525116 
M888.255737,472.196594 
	C893.847961,472.196594 899.440247,472.196594 905.023865,472.196594 
	C905.023865,452.970978 905.511780,434.324127 904.893433,415.714020 
	C904.206055,395.023499 887.416443,384.552246 868.244080,392.311981 
	C864.378174,393.876617 860.872314,396.330963 857.170776,398.391663 
	C856.732727,396.098724 856.336243,394.023529 855.973022,392.122314 
	C850.379333,392.122314 845.149841,392.122314 840.132935,392.122314 
	C840.132935,419.001404 840.132935,445.551483 840.132935,471.851929 
	C846.547607,471.851929 852.616821,471.851929 858.872681,471.851929 
	C858.872681,455.520813 859.353821,439.523987 858.648499,423.579651 
	C858.343628,416.686707 861.498352,413.168182 866.432434,410.040741 
	C877.045349,403.313843 885.750366,407.628052 886.056335,420.083588 
	C886.440430,435.720581 886.303833,451.369965 886.476318,467.013062 
	C886.495056,468.714050 887.070862,470.408936 888.255737,472.196594 
M761.146179,401.024323 
	C763.338562,405.854065 765.530945,410.683807 767.825378,415.738281 
	C771.342102,413.779175 773.993896,412.066925 776.838501,410.781403 
	C779.851929,409.419586 782.975830,408.163757 786.178833,407.385895 
	C796.181702,404.956726 802.037720,408.928497 803.119263,418.944122 
	C801.040833,419.280609 798.858765,419.369537 796.849243,420.004486 
	C787.566528,422.937836 777.777588,424.942627 769.222656,429.331787 
	C758.908691,434.623444 755.558167,447.103577 759.388062,458.519226 
	C762.684814,468.346100 772.982971,475.368683 784.104004,473.868439 
	C791.278137,472.900665 798.173950,469.870514 805.380737,467.708740 
	C805.590393,468.654755 805.974792,470.389252 806.314209,471.920776 
	C811.774109,471.920776 817.051880,471.920776 822.061707,471.920776 
	C822.061707,453.153229 822.732666,434.650238 821.866577,416.219421 
	C821.055237,398.952881 809.205078,389.347900 791.900085,389.909363 
	C780.690063,390.273102 770.945435,394.585022 761.146179,401.024323 
M501.503784,401.014343 
	C500.269684,402.583466 498.996002,404.123199 497.807739,405.726257 
	C487.752777,419.291595 487.984436,444.401245 497.462891,458.112366 
	C511.893524,478.987122 541.146606,477.697113 557.429993,464.087952 
	C554.962891,459.609711 552.462341,455.070709 549.926331,450.467377 
	C529.113342,465.116211 511.285278,454.370270 510.323486,438.206207 
	C526.226318,438.206207 542.108704,438.206207 558.956665,438.206207 
	C558.956665,432.089264 559.418335,426.441589 558.858582,420.897034 
	C557.765259,410.068024 553.744995,400.618500 544.098938,394.442932 
	C533.690369,387.779144 514.688721,387.152649 501.503784,401.014343 
M608.371216,471.014160 
	C610.138123,470.183258 611.904968,469.352386 613.860779,468.432617 
	C612.359802,463.369293 610.965088,458.664612 609.502258,453.729950 
	C607.557190,454.472046 606.047302,455.135956 604.483704,455.630219 
	C595.295471,458.534821 591.067383,455.484406 591.025574,445.921753 
	C590.996460,439.261719 591.019958,432.601501 591.019897,425.941345 
	C591.019897,420.189880 591.019897,414.438416 591.019897,408.319580 
	C597.980957,408.319580 604.260742,408.319580 610.633179,408.319580 
	C610.633179,402.673553 610.633179,397.420715 610.633179,391.682922 
	C604.025452,391.682922 597.632324,391.682922 590.935364,391.682922 
	C590.935364,383.594849 590.935364,375.987976 590.935364,368.251129 
	C585.207825,368.251129 579.810181,368.251129 574.232971,368.251129 
	C573.677673,376.239532 573.139893,383.975708 572.600464,391.735626 
	C568.566711,392.157501 564.844299,392.546844 561.261719,392.921539 
	C561.261719,398.349762 561.261719,403.269287 561.261719,408.336792 
	C564.909424,408.520020 568.289490,408.689819 571.983093,408.875336 
	C571.983093,422.615723 571.771667,435.767670 572.041199,448.909760 
	C572.324097,462.703461 579.925903,471.979950 591.890625,472.767700 
	C597.074707,473.109009 602.367676,471.796234 608.371216,471.014160 
M472.434021,425.981506 
	C483.599243,418.567963 488.740265,404.856537 485.751801,390.461823 
	C483.107117,377.722778 474.409790,368.974609 460.349121,367.324982 
	C448.181976,365.897522 435.808197,366.215637 423.524170,365.810944 
	C420.449921,365.709656 417.369476,365.795776 414.315002,365.795776 
	C414.315002,401.618774 414.315002,436.708679 414.315002,471.837646 
	C420.715881,471.837646 426.924469,471.837646 433.381744,471.837646 
	C433.381744,458.692291 433.381744,445.915558 433.381744,432.562347 
	C437.588715,432.562347 441.546265,432.646393 445.499146,432.545441 
	C454.688568,432.310791 463.766479,431.526276 472.434021,425.981506 
M1020.194763,463.479187 
	C1020.136230,448.484894 1020.317017,433.484833 1019.953796,418.497925 
	C1019.570740,402.694305 1009.726196,391.385895 995.923340,390.098480 
	C981.788818,388.780121 969.580139,393.613007 958.084656,401.653564 
	C960.826233,406.405975 963.442200,410.940613 965.321350,414.198029 
	C973.568176,411.570404 980.767578,408.373047 988.290039,407.127899 
	C996.175720,405.822662 1000.331482,410.480682 1000.691101,418.977448 
	C998.768921,419.299408 996.764221,419.450897 994.867188,419.984772 
	C986.588806,422.314636 978.023193,424.003235 970.157959,427.332855 
	C958.402649,432.309265 953.425598,444.359039 956.751404,456.815308 
	C959.763611,468.097137 970.096802,475.474152 982.631714,473.797607 
	C989.618347,472.863159 996.303589,469.675781 1003.098022,467.512146 
	C1003.333374,468.510620 1003.746338,470.262390 1004.113892,471.821716 
	C1009.600098,471.821716 1014.837769,471.821716 1020.194824,471.821716 
	C1020.194824,469.123474 1020.194824,466.797241 1020.194763,463.479187 
M941.998901,461.481140 
	C941.998901,438.372101 941.998901,415.263092 941.998901,392.104095 
	C935.438171,392.104095 929.376648,392.104095 923.330078,392.104095 
	C923.330078,418.929932 923.330078,445.486969 923.330078,472.157410 
	C929.152466,472.157410 934.646667,472.163239 940.140747,472.146973 
	C940.607056,472.145569 941.072937,471.996552 941.998901,471.836792 
	C941.998901,468.715790 941.998901,465.594116 941.998901,461.481140 
M922.359924,377.824585 
	C928.846008,385.423676 939.630310,384.735260 943.092041,376.501099 
	C945.106201,371.710144 943.806458,366.089386 939.961975,362.964630 
	C936.035278,359.773010 929.718384,359.552582 925.591858,362.463257 
	C921.061584,365.658661 919.860107,370.570343 922.359924,377.824585 
z"/>
<path fill="#D0D9E2" opacity="1.000000" stroke="none" 
	d="
M714.229736,386.156982 
	C716.429932,380.004486 718.372070,374.174316 720.640869,368.474213 
	C721.097351,367.327423 722.765198,365.961273 723.924927,365.913239 
	C730.059509,365.659119 736.210266,365.793976 742.612244,365.793976 
	C742.612244,401.353180 742.612244,436.570831 742.612244,471.999359 
	C736.738953,471.999359 730.951660,471.999359 724.628479,471.999359 
	C724.628479,451.747864 724.628479,431.535645 724.628479,411.323425 
	C724.274536,411.240143 723.920654,411.156860 723.566711,411.073578 
	C723.030334,412.310455 722.428955,413.523651 721.967468,414.787842 
	C716.675537,429.284790 711.274536,443.744415 706.232544,458.328094 
	C705.152893,461.451080 703.775146,462.334137 700.621826,462.286652 
	C691.019226,462.142029 691.010803,462.279510 687.694702,453.185547 
	C683.145630,440.710297 678.609619,428.230316 674.061035,415.754913 
	C673.578125,414.430603 673.048157,413.123444 671.472473,411.980042 
	C671.472473,431.917053 671.472473,451.854095 671.472473,471.996582 
	C665.081970,471.996582 659.321960,471.996582 653.343567,471.996582 
	C653.343567,436.737244 653.343567,401.647705 653.343567,366.175354 
	C660.341553,366.175354 667.382996,366.175354 674.815063,366.175354 
	C682.420593,387.762482 690.104919,409.573212 698.094482,432.250305 
	C703.638611,416.398438 708.862610,401.461761 714.229736,386.156982 
M739.723999,418.500000 
	C739.723999,402.102173 739.723999,385.704346 739.723999,369.036621 
	C734.852234,369.036621 730.833313,368.751526 726.893066,369.183411 
	C725.412476,369.345734 723.341003,370.897217 722.848633,372.281281 
	C715.212830,393.746155 707.785400,415.285278 700.334717,436.815826 
	C699.691650,438.674194 699.224243,440.593353 698.302734,443.767365 
	C697.435791,441.405457 697.087830,440.504303 696.772705,439.591827 
	C689.119385,417.429016 681.497803,395.255005 673.756470,373.122986 
	C673.227051,371.609344 671.902588,369.350403 670.779724,369.245972 
	C666.081055,368.808929 661.318298,369.061707 656.629578,369.061707 
	C656.629578,402.798187 656.629578,435.696838 656.629578,468.565796 
	C660.558777,468.565796 664.117432,468.565796 667.366943,468.565796 
	C667.366943,441.068146 667.366943,413.971008 667.366943,385.608032 
	C668.196411,387.965088 668.620789,389.173096 669.046570,390.380585 
	C676.679077,412.022827 684.398865,433.635040 691.851807,455.338928 
	C692.989136,458.650879 694.813538,459.096161 697.752686,459.032379 
	C700.548279,458.971710 702.617859,458.968811 703.797363,455.532684 
	C710.869995,434.928680 718.226440,414.422089 725.473694,393.877838 
	C726.437317,391.146088 727.321106,388.386108 728.507324,384.847260 
	C728.507324,413.382416 728.507324,440.911255 728.507324,468.656738 
	C732.074524,468.656738 735.633179,468.656738 739.723511,468.656738 
	C739.723511,452.069153 739.723511,435.784576 739.723999,418.500000 
M671.984314,410.424622 
	C671.814453,410.065308 671.644592,409.705994 671.474731,409.346680 
	C671.491821,409.856110 671.508850,410.365570 671.984314,410.424622 
z"/>
<path fill="#CFDBE2" opacity="1.000000" stroke="none" 
	d="
M887.822021,472.151611 
	C887.070862,470.408936 886.495056,468.714050 886.476318,467.013062 
	C886.303833,451.369965 886.440430,435.720581 886.056335,420.083588 
	C885.750366,407.628052 877.045349,403.313843 866.432434,410.040741 
	C861.498352,413.168182 858.343628,416.686707 858.648499,423.579651 
	C859.353821,439.523987 858.872681,455.520813 858.872681,471.851929 
	C852.616821,471.851929 846.547607,471.851929 840.132935,471.851929 
	C840.132935,445.551483 840.132935,419.001404 840.132935,392.122314 
	C845.149841,392.122314 850.379333,392.122314 855.973022,392.122314 
	C856.336243,394.023529 856.732727,396.098724 857.170776,398.391663 
	C860.872314,396.330963 864.378174,393.876617 868.244080,392.311981 
	C887.416443,384.552246 904.206055,395.023499 904.893433,415.714020 
	C905.511780,434.324127 905.023865,452.970978 905.023865,472.196594 
	C899.440247,472.196594 893.847961,472.196594 887.822021,472.151611 
M871.190735,404.185455 
	C883.607971,403.111908 888.297058,406.016357 889.216003,418.281494 
	C890.296326,432.699188 889.724792,447.240845 889.862061,461.728821 
	C889.883545,463.993073 889.865112,466.257721 889.865112,468.549683 
	C894.293457,468.549683 898.004639,468.549683 901.983582,468.549683 
	C901.983582,453.661255 902.061890,439.174957 901.936829,424.690369 
	C901.898193,420.216461 901.559753,415.710419 900.916199,411.283417 
	C899.423401,401.015808 893.669861,395.251282 883.483948,393.512390 
	C873.778992,391.855591 865.967712,395.902740 858.826782,401.872986 
	C857.528015,402.958862 856.217896,404.031097 854.577698,405.386719 
	C853.900757,401.459198 853.374268,398.404846 852.867371,395.464050 
	C849.374207,395.464050 846.325134,395.464050 843.400513,395.464050 
	C843.400513,420.125458 843.400513,444.368805 843.400513,468.681458 
	C847.368591,468.681458 850.966492,468.681458 855.163757,468.681458 
	C855.163757,466.637878 855.163757,464.859222 855.163757,463.080536 
	C855.163879,448.582001 855.096863,434.082794 855.242554,419.585724 
	C855.262451,417.603790 855.724792,414.884033 857.045471,413.794861 
	C861.224731,410.347870 865.908386,407.512360 871.190735,404.185455 
z"/>
<path fill="#CDD8E0" opacity="1.000000" stroke="none" 
	d="
M761.455017,400.802124 
	C770.945435,394.585022 780.690063,390.273102 791.900085,389.909363 
	C809.205078,389.347900 821.055237,398.952881 821.866577,416.219421 
	C822.732666,434.650238 822.061707,453.153229 822.061707,471.920776 
	C817.051880,471.920776 811.774109,471.920776 806.314209,471.920776 
	C805.974792,470.389252 805.590393,468.654755 805.380737,467.708740 
	C798.173950,469.870514 791.278137,472.900665 784.104004,473.868439 
	C772.982971,475.368683 762.684814,468.346100 759.388062,458.519226 
	C755.558167,447.103577 758.908691,434.623444 769.222656,429.331787 
	C777.777588,424.942627 787.566528,422.937836 796.849243,420.004486 
	C798.858765,419.369537 801.040833,419.280609 803.119263,418.944122 
	C802.037720,408.928497 796.181702,404.956726 786.178833,407.385895 
	C782.975830,408.163757 779.851929,409.419586 776.838501,410.781403 
	C773.993896,412.066925 771.342102,413.779175 767.825378,415.738281 
	C765.530945,410.683807 763.338562,405.854065 761.455017,400.802124 
M819.094238,443.500000 
	C819.048706,435.172394 819.225403,426.836334 818.908081,418.519104 
	C818.365540,404.297333 810.274719,394.588959 797.434082,393.289062 
	C785.563049,392.087311 774.908386,395.961975 764.794800,402.718109 
	C766.440247,405.554993 767.916870,408.100769 768.960876,409.900696 
	C776.018250,407.678833 782.498169,404.929077 789.255737,403.673798 
	C800.005310,401.676971 808.093933,410.573547 806.272644,421.834961 
	C803.905212,422.213531 801.396301,422.376099 799.026123,423.036377 
	C790.266479,425.476624 781.165222,427.205963 772.922791,430.853180 
	C763.331970,435.097137 760.151123,443.615112 761.950073,454.651581 
	C763.339294,463.174438 769.433228,468.593140 779.566711,470.420166 
	C788.269165,471.989197 795.498352,468.433105 802.474365,463.956177 
	C804.093750,462.916901 805.658142,461.791779 807.572998,460.484070 
	C808.315552,463.691589 808.900635,466.218994 809.463562,468.650635 
	C812.731689,468.650635 815.656616,468.650635 819.094421,468.650635 
	C819.094421,460.406281 819.094421,452.453125 819.094238,443.500000 
z"/>
<path fill="#D2DCE5" opacity="1.000000" stroke="none" 
	d="
M501.766754,400.772766 
	C514.688721,387.152649 533.690369,387.779144 544.098938,394.442932 
	C553.744995,400.618500 557.765259,410.068024 558.858582,420.897034 
	C559.418335,426.441589 558.956665,432.089264 558.956665,438.206207 
	C542.108704,438.206207 526.226318,438.206207 510.323486,438.206207 
	C511.285278,454.370270 529.113342,465.116211 549.926331,450.467377 
	C552.462341,455.070709 554.962891,459.609711 557.429993,464.087952 
	C541.146606,477.697113 511.893524,478.987122 497.462891,458.112366 
	C487.984436,444.401245 487.752777,419.291595 497.807739,405.726257 
	C498.996002,404.123199 500.269684,402.583466 501.766754,400.772766 
M540.548706,459.200104 
	C521.627197,465.816528 506.365814,452.633942 506.599670,434.967560 
	C519.211426,434.967560 531.836121,434.967560 544.460815,434.967560 
	C556.925720,434.967560 556.925781,434.967560 555.844177,422.347412 
	C554.621643,408.082794 547.346924,397.777405 536.126343,394.414917 
	C523.510986,390.634399 510.169495,394.924316 501.822327,405.717438 
	C494.618042,415.032684 492.670380,425.758026 493.829346,437.280365 
	C495.189850,450.805939 500.887054,461.733521 513.532227,467.540741 
	C527.188843,473.812439 540.378113,471.373352 553.303101,463.301758 
	C551.659424,460.546326 550.193848,458.089447 548.736267,455.645996 
	C545.848511,456.943512 543.581238,457.962219 540.548706,459.200104 
z"/>
<path fill="#D4DDE7" opacity="1.000000" stroke="none" 
	d="
M607.991211,471.124481 
	C602.367676,471.796234 597.074707,473.109009 591.890625,472.767700 
	C579.925903,471.979950 572.324097,462.703461 572.041199,448.909760 
	C571.771667,435.767670 571.983093,422.615723 571.983093,408.875336 
	C568.289490,408.689819 564.909424,408.520020 561.261719,408.336792 
	C561.261719,403.269287 561.261719,398.349762 561.261719,392.921539 
	C564.844299,392.546844 568.566711,392.157501 572.600464,391.735626 
	C573.139893,383.975708 573.677673,376.239532 574.232971,368.251129 
	C579.810181,368.251129 585.207825,368.251129 590.935364,368.251129 
	C590.935364,375.987976 590.935364,383.594849 590.935364,391.682922 
	C597.632324,391.682922 604.025452,391.682922 610.633179,391.682922 
	C610.633179,397.420715 610.633179,402.673553 610.633179,408.319580 
	C604.260742,408.319580 597.980957,408.319580 591.019897,408.319580 
	C591.019897,414.438416 591.019897,420.189880 591.019897,425.941345 
	C591.019958,432.601501 590.996460,439.261719 591.025574,445.921753 
	C591.067383,455.484406 595.295471,458.534821 604.483704,455.630219 
	C606.047302,455.135956 607.557190,454.472046 609.502258,453.729950 
	C610.965088,458.664612 612.359802,463.369293 613.860779,468.432617 
	C611.904968,469.352386 610.138123,470.183258 607.991211,471.124481 
M576.972778,376.556000 
	C576.519836,382.631439 576.066895,388.706879 575.622253,394.670685 
	C571.543457,395.219543 567.974976,395.699738 564.510010,396.166016 
	C564.510010,399.370789 564.510010,402.084381 564.510010,405.302094 
	C568.186279,405.302094 571.440002,405.302094 575.056824,405.302094 
	C575.056824,407.621643 575.054504,409.428955 575.057129,411.236298 
	C575.075012,423.392609 574.794067,435.558441 575.180969,447.703033 
	C575.802551,467.213776 593.080261,476.486023 609.839966,466.249207 
	C609.080933,463.842926 608.299683,461.366272 607.488281,458.794159 
	C605.970154,458.979431 604.818237,459.048126 603.695923,459.268127 
	C592.990967,461.366821 588.025146,457.533691 587.875488,446.802765 
	C587.747803,437.645477 587.831787,428.485229 587.825012,419.326294 
	C587.821594,414.728302 587.824402,410.130280 587.824402,404.981079 
	C594.767761,404.981079 601.005005,404.981079 607.336548,404.981079 
	C607.336548,401.364716 607.336548,398.333008 607.336548,394.782928 
	C600.665161,394.782928 594.413025,394.782928 587.824402,394.782928 
	C587.824402,389.450989 587.824402,384.641296 587.824341,379.831635 
	C587.824219,370.712311 587.824036,370.708740 578.486084,371.344360 
	C578.192627,371.364380 577.915833,371.628723 577.354309,371.925507 
	C577.248291,373.056030 577.127319,374.346191 576.972778,376.556000 
z"/>
<path fill="#D1D9E3" opacity="1.000000" stroke="none" 
	d="
M472.112183,426.154999 
	C463.766479,431.526276 454.688568,432.310791 445.499146,432.545441 
	C441.546265,432.646393 437.588715,432.562347 433.381744,432.562347 
	C433.381744,445.915558 433.381744,458.692291 433.381744,471.837646 
	C426.924469,471.837646 420.715881,471.837646 414.315002,471.837646 
	C414.315002,436.708679 414.315002,401.618774 414.315002,365.795776 
	C417.369476,365.795776 420.449921,365.709656 423.524170,365.810944 
	C435.808197,366.215637 448.181976,365.897522 460.349121,367.324982 
	C474.409790,368.974609 483.107117,377.722778 485.751801,390.461823 
	C488.740265,404.856537 483.599243,418.567963 472.112183,426.154999 
M473.571503,421.124298 
	C483.989563,411.822754 485.035553,399.963043 481.506897,387.669464 
	C478.073181,375.706696 468.178284,370.922852 456.706573,370.096619 
	C444.119904,369.190063 431.452850,369.394409 418.820068,369.154755 
	C418.405640,369.146851 417.982880,369.576508 417.626404,369.768555 
	C417.626404,402.787445 417.626404,435.682098 417.626404,468.578979 
	C421.880615,468.578979 425.771637,468.578979 429.967957,468.578979 
	C429.967957,461.718903 429.967926,455.241241 429.967926,448.763611 
	C429.967926,442.345062 429.967957,435.926514 429.967957,429.031403 
	C437.064240,429.031403 443.369110,429.109589 449.671204,429.012268 
	C458.180176,428.880859 466.116241,426.817810 473.571503,421.124298 
z"/>
<path fill="#D3DDE6" opacity="1.000000" stroke="none" 
	d="
M1020.194824,463.975098 
	C1020.194824,466.797241 1020.194824,469.123474 1020.194824,471.821716 
	C1014.837769,471.821716 1009.600098,471.821716 1004.113892,471.821716 
	C1003.746338,470.262390 1003.333374,468.510620 1003.098022,467.512146 
	C996.303589,469.675781 989.618347,472.863159 982.631714,473.797607 
	C970.096802,475.474152 959.763611,468.097137 956.751404,456.815308 
	C953.425598,444.359039 958.402649,432.309265 970.157959,427.332855 
	C978.023193,424.003235 986.588806,422.314636 994.867188,419.984772 
	C996.764221,419.450897 998.768921,419.299408 1000.691101,418.977448 
	C1000.331482,410.480682 996.175720,405.822662 988.290039,407.127899 
	C980.767578,408.373047 973.568176,411.570404 965.321350,414.198029 
	C963.442200,410.940613 960.826233,406.405975 958.084656,401.653564 
	C969.580139,393.613007 981.788818,388.780121 995.923340,390.098480 
	C1009.726196,391.385895 1019.570740,402.694305 1019.953796,418.497925 
	C1020.317017,433.484833 1020.136230,448.484894 1020.194824,463.975098 
M963.157898,436.780823 
	C953.630798,451.653625 960.641968,467.680084 977.943787,470.548889 
	C985.877991,471.864471 992.618164,468.760498 999.079224,464.720856 
	C1001.114807,463.448181 1003.088013,462.075684 1005.352234,460.574921 
	C1006.081909,463.812714 1006.647217,466.321136 1007.178833,468.680084 
	C1010.642395,468.680084 1013.574341,468.680084 1016.727295,468.680084 
	C1016.727295,451.275330 1017.256470,434.136383 1016.521240,417.051849 
	C1016.105957,407.403137 1012.049561,398.589355 1001.974182,395.024902 
	C987.656555,389.959595 975.048218,395.098938 962.491333,402.439728 
	C964.201538,405.541840 965.619934,408.114716 966.686890,410.050049 
	C973.432800,407.853516 979.556885,405.127838 985.966492,403.931122 
	C997.770569,401.727264 1005.265991,409.393219 1004.070679,421.773193 
	C999.373047,422.533600 994.586487,423.097382 989.897339,424.111572 
	C980.264832,426.194855 970.690735,428.532867 963.157898,436.780823 
z"/>
<path fill="#DEE5F2" opacity="1.000000" stroke="none" 
	d="
M941.998901,461.976776 
	C941.998901,465.594116 941.998901,468.715790 941.998901,471.836792 
	C941.072937,471.996552 940.607056,472.145569 940.140747,472.146973 
	C934.646667,472.163239 929.152466,472.157410 923.330078,472.157410 
	C923.330078,445.486969 923.330078,418.929932 923.330078,392.104095 
	C929.376648,392.104095 935.438171,392.104095 941.998901,392.104095 
	C941.998901,415.263092 941.998901,438.372101 941.998901,461.976776 
M938.848389,421.500000 
	C938.848389,412.751953 938.848389,404.003906 938.848389,395.416992 
	C934.122925,395.416992 930.236633,395.416992 926.397705,395.416992 
	C926.397705,420.081085 926.397705,444.309723 926.397705,468.673492 
	C930.607117,468.673492 934.492981,468.673492 938.848145,468.673492 
	C938.848145,453.056030 938.848145,437.778015 938.848389,421.500000 
z"/>
<path fill="#D0D9E2" opacity="1.000000" stroke="none" 
	d="
M922.184082,377.468872 
	C919.860107,370.570343 921.061584,365.658661 925.591858,362.463257 
	C929.718384,359.552582 936.035278,359.773010 939.961975,362.964630 
	C943.806458,366.089386 945.106201,371.710144 943.092041,376.501099 
	C939.630310,384.735260 928.846008,385.423676 922.184082,377.468872 
M936.949219,378.687836 
	C940.109558,376.455261 941.927795,373.285828 940.219543,369.765411 
	C939.083923,367.425079 936.605530,365.049103 934.191711,364.181458 
	C930.786072,362.957275 926.671631,363.995697 925.438721,367.731293 
	C924.531555,370.479919 924.656616,374.473755 926.077148,376.873627 
	C928.192749,380.447662 932.310852,380.755463 936.949219,378.687836 
z"/>
<path fill="#66CD6D" opacity="1.000000" stroke="none" 
	d="
M739.723755,419.000000 
	C739.723511,435.784576 739.723511,452.069153 739.723511,468.656738 
	C735.633179,468.656738 732.074524,468.656738 728.507324,468.656738 
	C728.507324,440.911255 728.507324,413.382416 728.507324,384.847260 
	C727.321106,388.386108 726.437317,391.146088 725.473694,393.877838 
	C718.226440,414.422089 710.869995,434.928680 703.797363,455.532684 
	C702.617859,458.968811 700.548279,458.971710 697.752686,459.032379 
	C694.813538,459.096161 692.989136,458.650879 691.851807,455.338928 
	C684.398865,433.635040 676.679077,412.022827 669.046570,390.380585 
	C668.620789,389.173096 668.196411,387.965088 667.366943,385.608032 
	C667.366943,413.971008 667.366943,441.068146 667.366943,468.565796 
	C664.117432,468.565796 660.558777,468.565796 656.629578,468.565796 
	C656.629578,435.696838 656.629578,402.798187 656.629578,369.061707 
	C661.318298,369.061707 666.081055,368.808929 670.779724,369.245972 
	C671.902588,369.350403 673.227051,371.609344 673.756470,373.122986 
	C681.497803,395.255005 689.119385,417.429016 696.772705,439.591827 
	C697.087830,440.504303 697.435791,441.405457 698.302734,443.767365 
	C699.224243,440.593353 699.691650,438.674194 700.334717,436.815826 
	C707.785400,415.285278 715.212830,393.746155 722.848633,372.281281 
	C723.341003,370.897217 725.412476,369.345734 726.893066,369.183411 
	C730.833313,368.751526 734.852234,369.036621 739.723999,369.036621 
	C739.723999,385.704346 739.723999,402.102173 739.723755,419.000000 
M666.302246,383.991394 
	C666.399170,384.173309 666.496155,384.355194 666.593140,384.537109 
	C666.585266,384.280884 666.577454,384.024689 666.302246,383.991394 
z"/>
<path fill="#010101" opacity="1.000000" stroke="none" 
	d="
M671.755127,410.649811 
	C671.508850,410.365570 671.491821,409.856110 671.474731,409.346680 
	C671.644592,409.705994 671.814453,410.065308 671.755127,410.649811 
z"/>
<path fill="#63CC6A" opacity="1.000000" stroke="none" 
	d="
M870.793823,404.312927 
	C865.908386,407.512360 861.224731,410.347870 857.045471,413.794861 
	C855.724792,414.884033 855.262451,417.603790 855.242554,419.585724 
	C855.096863,434.082794 855.163879,448.582001 855.163757,463.080536 
	C855.163757,464.859222 855.163757,466.637878 855.163757,468.681458 
	C850.966492,468.681458 847.368591,468.681458 843.400513,468.681458 
	C843.400513,444.368805 843.400513,420.125458 843.400513,395.464050 
	C846.325134,395.464050 849.374207,395.464050 852.867371,395.464050 
	C853.374268,398.404846 853.900757,401.459198 854.577698,405.386719 
	C856.217896,404.031097 857.528015,402.958862 858.826782,401.872986 
	C865.967712,395.902740 873.778992,391.855591 883.483948,393.512390 
	C893.669861,395.251282 899.423401,401.015808 900.916199,411.283417 
	C901.559753,415.710419 901.898193,420.216461 901.936829,424.690369 
	C902.061890,439.174957 901.983582,453.661255 901.983582,468.549683 
	C898.004639,468.549683 894.293457,468.549683 889.865112,468.549683 
	C889.865112,466.257721 889.883545,463.993073 889.862061,461.728821 
	C889.724792,447.240845 890.296326,432.699188 889.216003,418.281494 
	C888.297058,406.016357 883.607971,403.111908 870.793823,404.312927 
z"/>
<path fill="#64CC6C" opacity="1.000000" stroke="none" 
	d="
M819.094360,444.000000 
	C819.094421,452.453125 819.094421,460.406281 819.094421,468.650635 
	C815.656616,468.650635 812.731689,468.650635 809.463562,468.650635 
	C808.900635,466.218994 808.315552,463.691589 807.572998,460.484070 
	C805.658142,461.791779 804.093750,462.916901 802.474365,463.956177 
	C795.498352,468.433105 788.269165,471.989197 779.566711,470.420166 
	C769.433228,468.593140 763.339294,463.174438 761.950073,454.651581 
	C760.151123,443.615112 763.331970,435.097137 772.922791,430.853180 
	C781.165222,427.205963 790.266479,425.476624 799.026123,423.036377 
	C801.396301,422.376099 803.905212,422.213531 806.272644,421.834961 
	C808.093933,410.573547 800.005310,401.676971 789.255737,403.673798 
	C782.498169,404.929077 776.018250,407.678833 768.960876,409.900696 
	C767.916870,408.100769 766.440247,405.554993 764.794800,402.718109 
	C774.908386,395.961975 785.563049,392.087311 797.434082,393.289062 
	C810.274719,394.588959 818.365540,404.297333 818.908081,418.519104 
	C819.225403,426.836334 819.048706,435.172394 819.094360,444.000000 
M775.451294,442.318176 
	C772.693970,448.626465 773.226257,454.176361 776.911621,457.543365 
	C783.857666,463.889313 803.522400,459.201996 806.786865,450.419800 
	C806.843872,450.266418 806.877869,450.094604 806.877930,449.931366 
	C806.882507,443.710114 806.881775,437.488861 806.881775,430.898224 
	C803.504456,431.353912 800.864502,431.546753 798.297607,432.086731 
	C790.204712,433.789246 781.843140,434.934296 775.451294,442.318176 
z"/>
<path fill="#64CC6C" opacity="1.000000" stroke="none" 
	d="
M540.931274,459.090515 
	C543.581238,457.962219 545.848511,456.943512 548.736267,455.645996 
	C550.193848,458.089447 551.659424,460.546326 553.303101,463.301758 
	C540.378113,471.373352 527.188843,473.812439 513.532227,467.540741 
	C500.887054,461.733521 495.189850,450.805939 493.829346,437.280365 
	C492.670380,425.758026 494.618042,415.032684 501.822327,405.717438 
	C510.169495,394.924316 523.510986,390.634399 536.126343,394.414917 
	C547.346924,397.777405 554.621643,408.082794 555.844177,422.347412 
	C556.925781,434.967560 556.925720,434.967560 544.460815,434.967560 
	C531.836121,434.967560 519.211426,434.967560 506.599670,434.967560 
	C506.365814,452.633942 521.627197,465.816528 540.931274,459.090515 
M541.640442,411.026489 
	C536.691528,404.015015 529.097839,401.446472 521.095215,404.076996 
	C512.870911,406.780426 506.883545,415.535522 507.169952,424.770691 
	C519.559448,424.770691 531.960144,424.770691 545.648926,424.770691 
	C544.348328,420.056580 543.191711,415.864288 541.640442,411.026489 
z"/>
<path fill="#65CD6D" opacity="1.000000" stroke="none" 
	d="
M576.989563,376.096191 
	C577.127319,374.346191 577.248291,373.056030 577.354309,371.925507 
	C577.915833,371.628723 578.192627,371.364380 578.486084,371.344360 
	C587.824036,370.708740 587.824219,370.712311 587.824341,379.831635 
	C587.824402,384.641296 587.824402,389.450989 587.824402,394.782928 
	C594.413025,394.782928 600.665161,394.782928 607.336548,394.782928 
	C607.336548,398.333008 607.336548,401.364716 607.336548,404.981079 
	C601.005005,404.981079 594.767761,404.981079 587.824402,404.981079 
	C587.824402,410.130280 587.821594,414.728302 587.825012,419.326294 
	C587.831787,428.485229 587.747803,437.645477 587.875488,446.802765 
	C588.025146,457.533691 592.990967,461.366821 603.695923,459.268127 
	C604.818237,459.048126 605.970154,458.979431 607.488281,458.794159 
	C608.299683,461.366272 609.080933,463.842926 609.839966,466.249207 
	C593.080261,476.486023 575.802551,467.213776 575.180969,447.703033 
	C574.794067,435.558441 575.075012,423.392609 575.057129,411.236298 
	C575.054504,409.428955 575.056824,407.621643 575.056824,405.302094 
	C571.440002,405.302094 568.186279,405.302094 564.510010,405.302094 
	C564.510010,402.084381 564.510010,399.370789 564.510010,396.166016 
	C567.974976,395.699738 571.543457,395.219543 575.622253,394.670685 
	C576.066895,388.706879 576.519836,382.631439 576.989563,376.096191 
z"/>
<path fill="#65CD6C" opacity="1.000000" stroke="none" 
	d="
M473.303406,421.366455 
	C466.116241,426.817810 458.180176,428.880859 449.671204,429.012268 
	C443.369110,429.109589 437.064240,429.031403 429.967957,429.031403 
	C429.967957,435.926514 429.967926,442.345062 429.967926,448.763611 
	C429.967926,455.241241 429.967957,461.718903 429.967957,468.578979 
	C425.771637,468.578979 421.880615,468.578979 417.626404,468.578979 
	C417.626404,435.682098 417.626404,402.787445 417.626404,369.768555 
	C417.982880,369.576508 418.405640,369.146851 418.820068,369.154755 
	C431.452850,369.394409 444.119904,369.190063 456.706573,370.096619 
	C468.178284,370.922852 478.073181,375.706696 481.506897,387.669464 
	C485.035553,399.963043 483.989563,411.822754 473.303406,421.366455 
M443.409302,379.052277 
	C439.005096,379.052277 434.600922,379.052277 430.306763,379.052277 
	C430.306763,392.826721 430.306763,405.713989 430.306763,419.792328 
	C439.737793,418.920410 448.902618,418.862061 457.701935,417.039185 
	C466.614380,415.192810 471.313354,407.169739 470.775757,397.784790 
	C470.190857,387.573975 465.081085,381.637421 455.259521,380.074677 
	C451.667267,379.503113 448.003296,379.382416 443.409302,379.052277 
z"/>
<path fill="#64CC6C" opacity="1.000000" stroke="none" 
	d="
M963.378357,436.489441 
	C970.690735,428.532867 980.264832,426.194855 989.897339,424.111572 
	C994.586487,423.097382 999.373047,422.533600 1004.070679,421.773193 
	C1005.265991,409.393219 997.770569,401.727264 985.966492,403.931122 
	C979.556885,405.127838 973.432800,407.853516 966.686890,410.050049 
	C965.619934,408.114716 964.201538,405.541840 962.491333,402.439728 
	C975.048218,395.098938 987.656555,389.959595 1001.974182,395.024902 
	C1012.049561,398.589355 1016.105957,407.403137 1016.521240,417.051849 
	C1017.256470,434.136383 1016.727295,451.275330 1016.727295,468.680084 
	C1013.574341,468.680084 1010.642395,468.680084 1007.178833,468.680084 
	C1006.647217,466.321136 1006.081909,463.812714 1005.352234,460.574921 
	C1003.088013,462.075684 1001.114807,463.448181 999.079224,464.720856 
	C992.618164,468.760498 985.877991,471.864471 977.943787,470.548889 
	C960.641968,467.680084 953.630798,451.653625 963.378357,436.489441 
M979.558105,436.899200 
	C977.634521,438.454193 975.399658,439.749298 973.844360,441.611847 
	C968.704102,447.767578 971.140503,457.328247 978.292969,459.804535 
	C986.082336,462.501282 999.258484,458.267822 1003.934631,451.518616 
	C1004.383301,450.871063 1004.780823,450.022339 1004.789734,449.262146 
	C1004.859497,443.326019 1004.828369,437.388702 1004.828369,429.886688 
	C995.998413,432.285431 988.113892,434.427368 979.558105,436.899200 
z"/>
<path fill="#67CD6F" opacity="1.000000" stroke="none" 
	d="
M938.848267,422.000000 
	C938.848145,437.778015 938.848145,453.056030 938.848145,468.673492 
	C934.492981,468.673492 930.607117,468.673492 926.397705,468.673492 
	C926.397705,444.309723 926.397705,420.081085 926.397705,395.416992 
	C930.236633,395.416992 934.122925,395.416992 938.848389,395.416992 
	C938.848389,404.003906 938.848389,412.751953 938.848267,422.000000 
z"/>
<path fill="#65CD6D" opacity="1.000000" stroke="none" 
	d="
M936.595032,378.854309 
	C932.310852,380.755463 928.192749,380.447662 926.077148,376.873627 
	C924.656616,374.473755 924.531555,370.479919 925.438721,367.731293 
	C926.671631,363.995697 930.786072,362.957275 934.191711,364.181458 
	C936.605530,365.049103 939.083923,367.425079 940.219543,369.765411 
	C941.927795,373.285828 940.109558,376.455261 936.595032,378.854309 
z"/>
<path fill="#D0D9E2" opacity="1.000000" stroke="none" 
	d="
M666.435913,383.879944 
	C666.577454,384.024689 666.585266,384.280884 666.593140,384.537109 
	C666.496155,384.355194 666.399170,384.173309 666.435913,383.879944 
z"/>
<path fill="#D2DDE5" opacity="1.000000" stroke="none" 
	d="
M775.680908,442.006348 
	C781.843140,434.934296 790.204712,433.789246 798.297607,432.086731 
	C800.864502,431.546753 803.504456,431.353912 806.881775,430.898224 
	C806.881775,437.488861 806.882507,443.710114 806.877930,449.931366 
	C806.877869,450.094604 806.843872,450.266418 806.786865,450.419800 
	C803.522400,459.201996 783.857666,463.889313 776.911621,457.543365 
	C773.226257,454.176361 772.693970,448.626465 775.680908,442.006348 
M792.384583,456.265228 
	C803.865906,451.837524 806.018616,447.599426 802.817871,433.700134 
	C795.452271,436.281647 788.030212,438.358612 781.096375,441.509766 
	C776.936890,443.400085 775.995911,447.932556 777.369873,452.300201 
	C778.605347,456.227722 782.027222,457.153870 785.719360,457.112793 
	C787.690491,457.090912 789.658508,456.784821 792.384583,456.265228 
z"/>
<path fill="#D3DDE6" opacity="1.000000" stroke="none" 
	d="
M541.837769,411.349243 
	C543.191711,415.864288 544.348328,420.056580 545.648926,424.770691 
	C531.960144,424.770691 519.559448,424.770691 507.169952,424.770691 
	C506.883545,415.535522 512.870911,406.780426 521.095215,404.076996 
	C529.097839,401.446472 536.691528,404.015015 541.837769,411.349243 
M536.386353,421.982361 
	C537.967834,421.982361 539.549316,421.982361 541.156250,421.982361 
	C540.530090,411.628754 535.926331,406.674561 527.318726,406.544983 
	C518.510498,406.412384 511.777710,412.680603 510.940704,421.982361 
	C519.108521,421.982361 527.258789,421.982361 536.386353,421.982361 
z"/>
<path fill="#D2DCE4" opacity="1.000000" stroke="none" 
	d="
M443.890686,379.054138 
	C448.003296,379.382416 451.667267,379.503113 455.259521,380.074677 
	C465.081085,381.637421 470.190857,387.573975 470.775757,397.784790 
	C471.313354,407.169739 466.614380,415.192810 457.701935,417.039185 
	C448.902618,418.862061 439.737793,418.920410 430.306763,419.792328 
	C430.306763,405.713989 430.306763,392.826721 430.306763,379.052277 
	C434.600922,379.052277 439.005096,379.052277 443.890686,379.054138 
M466.973694,394.145325 
	C465.883698,388.177338 462.198242,384.537292 456.346130,383.819397 
	C448.843842,382.898956 441.261047,382.635040 433.452026,382.069336 
	C433.452026,393.847015 433.452026,404.580750 433.452026,415.460266 
	C439.152374,415.460266 444.642975,415.934937 450.023621,415.367371 
	C463.769653,413.917480 467.847137,408.811523 466.973694,394.145325 
z"/>
<path fill="#CBD8DE" opacity="1.000000" stroke="none" 
	d="
M979.893738,436.734253 
	C988.113892,434.427368 995.998413,432.285431 1004.828369,429.886688 
	C1004.828369,437.388702 1004.859497,443.326019 1004.789734,449.262146 
	C1004.780823,450.022339 1004.383301,450.871063 1003.934631,451.518616 
	C999.258484,458.267822 986.082336,462.501282 978.292969,459.804535 
	C971.140503,457.328247 968.704102,447.767578 973.844360,441.611847 
	C975.399658,439.749298 977.634521,438.454193 979.893738,436.734253 
M977.651672,442.275421 
	C974.175720,446.849487 973.601257,451.442261 976.384766,454.460419 
	C979.790833,458.153564 984.646545,458.054779 988.431885,456.594360 
	C993.108398,454.790009 997.084717,451.169342 1001.352722,448.317200 
	C1001.441223,448.258057 1001.412903,448.000885 1001.413025,447.836121 
	C1001.415894,443.592529 1001.415283,439.348938 1001.415283,434.722168 
	C992.840881,435.976318 984.999756,437.050629 977.651672,442.275421 
z"/>
<path fill="#050505" opacity="1.000000" stroke="none" 
	d="
M792.006226,456.436096 
	C789.658508,456.784821 787.690491,457.090912 785.719360,457.112793 
	C782.027222,457.153870 778.605347,456.227722 777.369873,452.300201 
	C775.995911,447.932556 776.936890,443.400085 781.096375,441.509766 
	C788.030212,438.358612 795.452271,436.281647 802.817871,433.700134 
	C806.018616,447.599426 803.865906,451.837524 792.006226,456.436096 
z"/>
<path fill="#020202" opacity="1.000000" stroke="none" 
	d="
M535.897705,421.982361 
	C527.258789,421.982361 519.108521,421.982361 510.940704,421.982361 
	C511.777710,412.680603 518.510498,406.412384 527.318726,406.544983 
	C535.926331,406.674561 540.530090,411.628754 541.156250,421.982361 
	C539.549316,421.982361 537.967834,421.982361 535.897705,421.982361 
z"/>
<path fill="#040404" opacity="1.000000" stroke="none" 
	d="
M467.020355,394.574951 
	C467.847137,408.811523 463.769653,413.917480 450.023621,415.367371 
	C444.642975,415.934937 439.152374,415.460266 433.452026,415.460266 
	C433.452026,404.580750 433.452026,393.847015 433.452026,382.069336 
	C441.261047,382.635040 448.843842,382.898956 456.346130,383.819397 
	C462.198242,384.537292 465.883698,388.177338 467.020355,394.574951 
z"/>
<path fill="#030303" opacity="1.000000" stroke="none" 
	d="
M977.949341,442.034668 
	C984.999756,437.050629 992.840881,435.976318 1001.415283,434.722168 
	C1001.415283,439.348938 1001.415894,443.592529 1001.413025,447.836121 
	C1001.412903,448.000885 1001.441223,448.258057 1001.352722,448.317200 
	C997.084717,451.169342 993.108398,454.790009 988.431885,456.594360 
	C984.646545,458.054779 979.790833,458.153564 976.384766,454.460419 
	C973.601257,451.442261 974.175720,446.849487 977.949341,442.034668 
z"/>
</svg>